<svg xmlns="http://www.w3.org/2000/svg" width="23.256" height="30.25" viewBox="0 0 23.256 30.25"><defs><style>.a{fill:#2484c6;}.b{fill:#333132;}</style></defs><path class="a" d="M224.033,291.747h0l-5.875-5.875a3.252,3.252,0,0,0-4.686,0h0a3.252,3.252,0,0,0,0,4.686l5.875,5.875h0a4.981,4.981,0,0,1,0,7.064l-2.028,2.028L219.7,307.9a5.365,5.365,0,0,1,1.539,3.147l2.8-2.8h0A11.693,11.693,0,0,0,224.033,291.747Z" transform="translate(-204.187 -284.875)"/><path class="b" d="M214.6,311.193l-5.875-5.875h0a4.981,4.981,0,0,1,0-7.064l2.028-2.028-2.378-2.378a5.365,5.365,0,0,1-1.539-3.147l-2.8,2.8h0a11.693,11.693,0,0,0,0,16.506h0l5.875,5.875a3.252,3.252,0,0,0,4.686,0h0A3.379,3.379,0,0,0,214.6,311.193Z" transform="translate(-200.625 -286.626)"/></svg>